<?xml version="1.0" encoding="utf-8"?>
<!-- Generator: Adobe Illustrator 28.0.0, SVG Export Plug-In . SVG Version: 6.00 Build 0)  -->
<svg version="1.1" id="Layer_1" xmlns="http://www.w3.org/2000/svg" xmlns:xlink="http://www.w3.org/1999/xlink" x="0px" y="0px"
	 viewBox="0 0 1920 1080" style="enable-background:new 0 0 1920 1080;" xml:space="preserve">
<style type="text/css">
	.st0{fill:#1A237E;}
	.st1{fill:#FFCC00;}
</style>
<g>
	<g>
		<path class="st0" d="M830.1,605.5h-10.4c-1,0-1.8-0.8-1.8-1.8V476.5c0-1,0.8-1.8,1.8-1.8h10.4c1,0,1.8,0.8,1.8,1.8v13.2
			c0,1.7,2,2.4,3.2,1.2c4.9-5.2,10.7-9.3,17.3-12.5c8.1-3.9,16.8-5.8,26.1-5.8c10.9,0,20.8,2.4,29.5,7.3
			c8.7,4.9,15.5,11.6,20.4,20.2c4.9,8.6,7.4,18.3,7.4,29.2v74.4c0,1-0.8,1.8-1.8,1.8h-10.3c-1,0-1.8-0.8-1.8-1.8v-71.2
			c0-9.1-1.8-17.1-5.4-24.1c-3.6-7-8.7-12.4-15.3-16.3c-6.6-3.9-14.1-5.8-22.6-5.8c-9,0-17,2.3-24.1,6.8
			c-7.1,4.5-12.6,10.8-16.5,18.8c-4,8-6,17.2-6,27.5v64.3C831.9,604.7,831.1,605.5,830.1,605.5z"/>
		<path class="st0" d="M992.3,588c0,0-0.1-0.1-0.1-0.1c-13-13.7-19.4-29.7-19.4-48c0-9.2,1.6-17.8,4.9-25.8
			c3.3-8,8.1-15.3,14.5-21.9c6.5-6.4,13.8-11.3,21.8-14.6c8.1-3.3,16.7-5,25.8-5c11.4,0,22,2.7,31.7,8.1
			c9.7,5.4,17.7,12.9,23.8,22.4c6.1,9.5,9.6,20,10.5,31.6c0.1,1.9,0.2,4.9,0.2,9.2c0,1-0.8,1.8-1.8,1.8H989.4c-1.1,0-2,1-1.8,2.1
			c1.1,8.2,3.9,15.6,8.4,22.3c4.9,7.3,11.1,12.9,18.8,17.1c7.7,4.1,16.1,6.2,25,6.2c10.1,0,19.5-2.6,28-7.9
			c8.2-5.1,14.5-11.8,18.8-20.3c0.3-0.6,0.9-1,1.6-1h11.7c1.3,0,2.2,1.3,1.7,2.5c-3.3,7.6-7.8,14.4-13.5,20.2
			c-6.3,6.5-13.7,11.5-22,15c-8.4,3.5-17.1,5.3-26.3,5.3C1021.8,607.3,1005.9,600.9,992.3,588z M1089,532.1c1.1,0,2-1,1.8-2.1
			c-1.4-7.8-4.3-14.9-8.7-21.3c-4.8-6.9-10.9-12.4-18.3-16.3c-7.4-3.9-15.4-5.9-24-5.9c-8.8,0-16.9,2-24.5,5.9
			c-7.6,3.9-13.8,9.4-18.7,16.3c-4.5,6.4-7.4,13.5-8.8,21.3c-0.2,1.1,0.7,2.1,1.8,2.1H1089z"/>
		<path class="st0" d="M1170.6,604.1c-6.9-2.5-12.7-5.9-17.3-10.4c-4.6-4.5-7.6-9.6-9.2-15.4c-0.7-2.7-1.1-5.6-1.1-8.6
			c0-0.6,0-1.3,0.1-2.3c0.1-1,0.9-1.7,1.8-1.7h8.8c1.1,0,1.9,0.9,1.8,2c0,0.3,0,0.6,0,0.8c0,5.1,1.8,9.6,5.4,13.6
			c3.6,4,8.3,7,14.2,9.2c5.8,2.1,12,3.2,18.5,3.2c7,0,13.3-1,18.9-3.1c5.6-2.1,10.1-4.9,13.3-8.5c3.2-3.6,4.8-7.7,4.9-12.2
			c-0.2-6.2-3-11.2-8.5-15c-5.5-3.9-14.6-7.1-27.2-9.8c-7.4-1.5-13.4-2.8-17.9-4c-4.6-1.2-9-2.7-13.2-4.4c-7-3-12.2-6.8-15.6-11.4
			c-4.9-6.6-6.3-15.1-4.1-25.5c0-0.1,0.1-0.2,0.1-0.3c3.9-10.6,11.7-18.3,23.5-23.3c7.7-3.2,16.3-4.9,25.9-4.9
			c9.8,0,18.6,1.6,26.3,4.9c7.7,3.3,13.8,7.8,18.1,13.7c4.3,5.8,6.5,12.4,6.5,19.7c0,0.5,0,1.3-0.1,2.2c-0.1,1-0.9,1.7-1.8,1.7
			h-10.8c0.1-0.6,0.1-1.4,0.1-2.6c0-4.7-1.7-9.1-5-13.1c-3.4-4-8-7.2-13.8-9.5c-5.8-2.4-12.3-3.5-19.5-3.5c-7,0-13.3,1-18.9,3.1
			c-5.6,2.1-10.1,4.9-13.3,8.6c-3.2,3.6-4.8,7.7-4.8,12.3c0,2.3,0.5,4.4,1.5,6.4c1,2,2.5,3.6,4.3,4.9c1.7,1.2,4.7,2.6,9,4.3
			c3.6,1.5,6.9,2.6,9.7,3.3c2.8,0.8,7.8,2,15,3.6c11.5,2.4,20.8,5.3,27.7,8.7c7,3.4,12.1,7.5,15.4,12.3c4.5,6.6,5.9,15.2,4.2,25.6
			c0,0.1-0.1,0.3-0.1,0.4c-3.8,11-11.8,19-23.8,24c-7.7,3.2-16.4,4.8-26,4.8C1185.2,607.8,1177.5,606.6,1170.6,604.1z"/>
		<path class="st0" d="M1309.1,604.1c-6.9-2.5-12.7-5.9-17.3-10.4c-4.6-4.5-7.6-9.6-9.2-15.4c-0.7-2.7-1.1-5.6-1.1-8.6
			c0-0.6,0-1.3,0.1-2.3c0.1-1,0.9-1.7,1.8-1.7h8.8c1.1,0,1.9,0.9,1.8,2c0,0.3,0,0.6,0,0.8c0,5.1,1.8,9.6,5.4,13.6
			c3.6,4,8.3,7,14.2,9.2c5.8,2.1,12,3.2,18.5,3.2c7,0,13.3-1,18.9-3.1c5.6-2.1,10.1-4.9,13.3-8.5c3.2-3.6,4.8-7.7,4.9-12.2
			c-0.2-6.2-3-11.2-8.5-15c-5.5-3.9-14.6-7.1-27.2-9.8c-7.4-1.5-13.4-2.8-17.9-4c-4.6-1.2-9-2.7-13.2-4.4c-7-3-12.2-6.8-15.6-11.4
			c-4.9-6.6-6.3-15.1-4.1-25.5c0-0.1,0.1-0.2,0.1-0.3c3.9-10.6,11.7-18.3,23.5-23.3c7.7-3.2,16.3-4.9,25.9-4.9
			c9.8,0,18.6,1.6,26.3,4.9c7.7,3.3,13.8,7.8,18.1,13.7c4.3,5.8,6.5,12.4,6.5,19.7c0,0.5,0,1.3-0.1,2.2c-0.1,1-0.9,1.7-1.8,1.7
			h-10.8c0.1-0.6,0.1-1.4,0.1-2.6c0-4.7-1.7-9.1-5-13.1c-3.4-4-8-7.2-13.8-9.5c-5.8-2.4-12.3-3.5-19.5-3.5c-7,0-13.3,1-18.9,3.1
			c-5.6,2.1-10.1,4.9-13.3,8.6c-3.2,3.6-4.8,7.7-4.8,12.3c0,2.3,0.5,4.4,1.5,6.4c1,2,2.5,3.6,4.3,4.9c1.7,1.2,4.7,2.6,9,4.3
			c3.6,1.5,6.9,2.6,9.7,3.3c2.8,0.8,7.8,2,15,3.6c11.5,2.4,20.8,5.3,27.7,8.7c7,3.4,12.1,7.5,15.4,12.3c4.5,6.6,5.9,15.2,4.2,25.6
			c0,0.1-0.1,0.3-0.1,0.4c-3.8,11-11.8,19-23.8,24c-7.7,3.2-16.4,4.8-26,4.8C1323.7,607.8,1316,606.6,1309.1,604.1z"/>
		<path class="st0" d="M669.1,588c0,0-0.1-0.1-0.1-0.1c-13-13.7-19.4-29.7-19.4-48c0-9.2,1.6-17.8,4.9-25.8
			c3.3-8,8.1-15.3,14.5-21.9c6.5-6.4,13.8-11.3,21.8-14.6c8.1-3.3,16.7-5,25.8-5c9.7,0,18.9,1.9,27.6,5.8
			c8.7,3.9,16.2,9.3,22.6,16.4c5.8,6.4,10.2,13.8,13.2,22c0.4,1.2-0.5,2.4-1.7,2.4h-11.5c-0.7,0-1.4-0.4-1.7-1.1
			c-2.6-6.1-6.3-11.5-11-16.2c-4.9-4.9-10.6-8.8-17.1-11.4s-13.2-4-20.4-4c-9.8,0-18.7,2.4-26.8,7.1c-8.1,4.7-14.4,11.1-19.1,19.3
			c-4.7,8.1-7,17.2-7,27.1c0,9.9,2.3,18.9,7,27.1c4.7,8.2,11,14.7,19.2,19.4c8.1,4.7,17,7.1,26.8,7.1c7.1,0,13.9-1.3,20.4-4
			c6.4-2.7,12.1-6.5,17.1-11.4c4.7-4.7,8.3-10,11-16c0.3-0.7,0.9-1.1,1.7-1.1h11.5c1.3,0,2.2,1.3,1.7,2.4c-3,8.2-7.4,15.5-13.2,21.9
			c-6.4,7.1-13.9,12.5-22.6,16.4c-8.7,3.9-17.9,5.8-27.6,5.8C698.6,607.3,682.7,600.9,669.1,588z"/>
		<g>
			<g>
				<g>
					<g>
						<path class="st0" d="M749.8,621.8l9.2-4.6c0.9-0.5,2-0.1,2.5,0.8l40.3,80.2c0.5,0.9,0.1,2-0.8,2.5l-9.2,4.6
							c-0.9,0.5-2,0.1-2.5-0.8L749,624.2C748.5,623.3,748.9,622.2,749.8,621.8z"/>
					</g>
				</g>
			</g>
			<g>
				<g>
					<g>
						<path class="st0" d="M699.3,627.8l10.2,1.1c1,0.1,1.7,1,1.6,2l-10,89.2c-0.1,1-1,1.7-2,1.6l-10.2-1.1c-1-0.1-1.7-1-1.6-2
							l10-89.2C697.4,628.5,698.3,627.7,699.3,627.8z"/>
					</g>
				</g>
			</g>
			<g>
				<g>
					<g>
						<path class="st0" d="M653.6,605.4l8,6.6c0.8,0.6,0.9,1.8,0.3,2.6l-57,69.3c-0.6,0.8-1.8,0.9-2.6,0.3l-8-6.6
							c-0.8-0.6-0.9-1.8-0.3-2.6l57-69.3C651.7,604.8,652.8,604.7,653.6,605.4z"/>
					</g>
				</g>
			</g>
			<g>
				<g>
					<g>
						<path class="st0" d="M627.6,561.6l3.1,9.8c0.3,1-0.2,2-1.2,2.3l-85.6,27c-1,0.3-2-0.2-2.3-1.2l-3.1-9.8c-0.3-1,0.2-2,1.2-2.3
							l85.6-27C626.3,560.1,627.3,560.6,627.6,561.6z"/>
					</g>
				</g>
			</g>
			<g>
				<g>
					<g>
						<path class="st0" d="M629.7,510.8l-2.8,9.9c-0.3,1-1.3,1.5-2.3,1.3l-86.4-24.1c-1-0.3-1.5-1.3-1.3-2.3l2.8-9.9
							c0.3-1,1.3-1.5,2.3-1.3l86.4,24.1C629.4,508.8,630,509.8,629.7,510.8z"/>
					</g>
				</g>
			</g>
			<g>
				<g>
					<g>
						<path class="st0" d="M659.2,469.3l-7.7,6.8c-0.8,0.7-1.9,0.6-2.6-0.2l-59.3-67.3c-0.7-0.8-0.6-1.9,0.2-2.6l7.7-6.8
							c0.8-0.7,1.9-0.6,2.6,0.2l59.3,67.3C660,467.5,660,468.6,659.2,469.3z"/>
					</g>
				</g>
			</g>
			<g>
				<g>
					<g>
						<path class="st0" d="M706.5,450.6l-10.2,1.5c-1,0.1-1.9-0.5-2.1-1.5l-13-88.8c-0.1-1,0.5-1.9,1.5-2.1l10.2-1.5
							c1-0.1,1.9,0.5,2.1,1.5l13,88.8C708.2,449.5,707.5,450.5,706.5,450.6z"/>
					</g>
				</g>
			</g>
			<g>
				<g>
					<g>
						<path class="st0" d="M756.4,460.8l-9.4-4.3c-0.9-0.4-1.3-1.5-0.9-2.4l37.6-81.5c0.4-0.9,1.5-1.3,2.4-0.9l9.4,4.3
							c0.9,0.4,1.3,1.5,0.9,2.4l-37.6,81.5C758.4,460.8,757.3,461.2,756.4,460.8z"/>
					</g>
				</g>
			</g>
		</g>
	</g>
	<circle class="st1" cx="716.5" cy="540" r="37"/>
</g>
</svg>
